<svg width="171" height="141" viewBox="0 0 171 141" fill="none" xmlns="http://www.w3.org/2000/svg">
<path d="M116.685 87.2912C122.023 85.1265 106.813 72.5996 106.062 72.0402C100.289 68.7301 95.1777 77.3889 101.628 77.2297C103.738 76.5874 106.193 76.6173 107.701 77.3495C110.487 78.7138 112.689 81.6043 113.922 85.516C114.433 87.4996 114.754 88.2488 116.685 87.2912ZM98.6954 140.685C95.9355 140.001 95.2215 138.864 93.685 137.917C90.9481 136.229 91.6609 136.315 92.4086 132.11C92.5622 131.246 92.4872 130.918 92.1192 130.612C90.7513 129.155 89.729 133.003 89.054 135.489L88.1072 135.238C87.7705 133.832 88.1534 132.564 88.437 131.184C88.5782 130.496 88.7469 129.267 88.4087 127.586C88.3154 127.122 88.4197 126.332 88.9647 125.258C89.7744 123.664 90.7875 123.757 91.2644 123.822C91.8771 123.907 91.871 123.94 91.6853 121.498L91.6275 120.737L89.6526 120.916C87.2372 121.135 85.1812 120.56 83.805 119.28C83.2976 118.809 81.1168 116.308 78.9587 113.723C71.8869 104.464 73.6372 104.945 69.938 105.974C63.4265 107.446 56.5113 108.963 52.1512 110.685C51.9862 110.57 50.079 105.055 50.0767 105.013C50.0756 104.994 50.1697 104.985 50.1888 104.98C60.7682 101.928 69.3836 99.743 68.9131 99.2775C68.9131 99.2775 58.3693 89.7749 58.1784 81.3649C57.8767 70.7495 66.9242 68.2391 71.7417 65.0515C75.6943 62.4642 78.4101 59.9611 80.9131 56.5979C82.5015 54.4636 82.87 53.7845 82.8116 53.0987C82.626 50.9161 79.6355 48.5799 77.3138 48.8035C75.8992 48.9398 73.4072 55.5121 69.7462 52.6442C61.0331 45.8189 60.4412 58.1039 55.1485 58.1335C45.6964 51.9686 52.1851 62.7698 46.3674 62.6534C28.8254 62.3024 45.7515 80.8808 38.6988 81.7696C22.3978 72.6111 26.2129 105.758 7.50396 93.1488C-4.94602 80.3134 2.75929 82.9956 9.17005 81.346C18.4934 76.7041 12.3503 45.6452 22.3162 57.2669C32.8839 60.749 33.9052 34.1914 36.1159 33.1352C45.4193 23.2759 44.1107 36.7782 50.2618 33.4273C58.5332 28.5687 64.9269 36.3769 67.7043 36.6815C73.0879 39.7593 78.0131 36.2178 81.4169 36.2957C90.4376 37.1992 90.3302 39.7143 92.1882 41.3042C94.9908 43.7297 100.502 38.2875 102.424 38.2875C103.643 38.2875 104.953 37.841 104.741 37.4977C104.659 37.3641 104.055 37.1744 103.399 37.076C102.548 36.9483 101.975 36.6456 101.394 36.017C100.188 34.7123 99.0257 32.7796 99.2882 32.5168C99.4146 32.3904 100.011 32.4012 100.613 32.5409C101.216 32.6806 102.582 32.7978 103.65 32.8014C105.272 32.8069 105.866 32.6712 107.252 31.9782C108.165 31.5218 109.063 30.967 109.247 30.7453C109.536 30.397 109.319 30.3423 107.651 30.3423C104.233 30.3423 101.563 29.5475 99.9965 28.0641C98.1089 26.2765 98.8895 25.9557 105.272 25.8961C109.787 25.8538 110.4 25.7936 110.799 25.3531C113.568 18.0296 112.141 8.29719 109.496 4.79888C108.442 2.87749 106.334 0.906054 107.166 0.828247C117.493 5.03339 121.881 11.2358 126.07 24.6597C126.537 24.9974 130.314 24.6195 132.383 24.028C137.253 22.6358 138.283 22.6572 137.319 24.1303C136.256 25.7523 133.434 27.467 129.781 28.7105C126.89 29.6945 126.878 29.7051 127.737 30.564C129.8 31.8073 130.222 33.7916 127.969 34.405C127.191 34.6165 127.925 35.4503 128.775 36.3228C130.436 38.0266 131.776 42.4477 130.751 42.8413C130.061 43.1063 129.808 43.718 128.662 41.0887C127.573 38.2147 126.949 40.8413 126.273 41.77C126.094 43.2792 125.663 42.456 125.315 42.1671C125.086 41.9769 124.577 41.7628 124.183 41.6915C123.55 41.5766 123.064 41.9802 122.927 42.8239C122.991 43.6134 123.208 44.5165 124.629 45.2074C126.251 43.6921 126.662 44.7014 125.559 46.1874C125.173 47.7382 128.261 48.9169 125.617 51.586C122.466 53.3714 121.534 46.3373 119.01 45.5822C115.844 42.8681 113.665 46.7785 112.49 48.4882C110.263 52.9643 114.559 49.9538 114.056 56.8426C113.594 58.2375 113.597 58.3181 114.171 59.9341C115.689 64.2099 117.755 66.2973 121.728 67.5668C123.294 68.0674 130.104 69.7656 132.862 70.3432C137.589 71.3335 137.035 70.6847 138.163 73.1435C138.638 74.179 138.772 75.4658 141.144 74.5333C152.345 71.3613 150.025 75.1601 154.306 74.8958C156.894 74.0598 166.656 70.895 168.729 70.3055C169.85 69.9867 169.951 71.0675 170.102 71.4032C170.847 72.7606 169.066 72.9461 167.354 73.6859C154.89 77.8804 155.002 76.9804 156.347 79.9245C157.099 80.8826 156.858 81.3412 155.594 81.4932C155.107 81.5519 155.992 82.5663 154.589 82.3806C154.327 82.346 154.698 83.6922 153.697 83.429C153.071 84.0551 153.039 84.0585 152.242 83.5876C151.439 83.1129 151.52 85.338 150.669 83.8325C149.755 82.221 149.968 81.214 147.334 82.2749C147.125 82.1456 140.151 84.68 138.819 85.3694C134.988 86.6898 133.903 86.9019 133.869 90.4811C133.796 95.0985 132.839 98.499 131.076 100.41C130.677 100.842 130.195 101.026 129.46 101.026C123.637 99.9967 122.364 90.8323 118.774 91.7679C114.415 95.8476 119.422 104.42 120.469 106.693C123.524 111.511 110.975 106.411 110.657 109.743C110.663 109.997 110.546 111.006 110.397 111.985C110.089 114.004 110.133 114.175 110.968 114.181C112.327 114.26 112.15 115.082 111.776 115.752C111.428 116.372 111.22 117.144 111.275 117.617C111.249 119.917 111.569 121.691 113.101 122.875C115.104 125.167 118.989 123.464 119.543 125.306C119.643 127.634 119.721 127.794 118.871 127.799C117.533 127.802 117.399 127.904 115.829 127.758C113.992 127.673 110.189 127.71 108.189 124.378C107.713 123.585 107.323 122.833 107.323 122.708C107.323 122.583 107.083 122.263 106.789 121.998C106.274 121.531 106.237 121.545 105.708 122.415C105.407 122.911 105.216 123.407 105.285 123.518C105.253 125.018 104.902 125.656 104.444 125.767C104.028 125.867 103.863 125.726 103.431 125.207C104.082 121.237 103.387 118.681 103.441 116.931C103.021 116.052 104.215 114.173 105.238 113.388C105.813 112.946 106.169 113.247 106.557 113.295C106.964 113.378 107.009 113.187 106.908 111.8C106.779 110.026 106.424 109.592 105.173 109.679C93.1457 112.076 95.2949 117.026 94.9583 122.611C94.8517 124.51 94.8836 123.931 96.2517 123.939C99.9323 123.623 95.9042 130.294 96.9486 133.355C96.0197 136.506 100.967 136.718 101.072 139.107C101.072 139.425 100.239 141.044 99.9679 140.991C99.8709 140.972 99.2979 140.834 98.6954 140.685Z" fill="#FF7518"/>
<path d="M15.6629 126.14C15.1845 125.921 14.427 125.391 13.9795 124.963C13.2104 124.228 13.168 124.074 13.2024 122.134C13.238 120.122 13.2089 120.029 11.746 117.479C10.751 115.743 9.49683 114.09 7.98404 112.519C5.78046 110.231 5.33363 109.533 6.07085 109.533C6.61941 109.533 7.90113 108.879 7.90354 108.598C7.90354 108.46 7.16182 107.572 6.25268 106.625C4.97 105.289 4.25986 104.191 3.08281 101.723C1.44035 98.2797 1.4334 97.9548 2.99481 97.6118C3.4363 97.5148 3.79752 97.3325 3.79752 97.2067C3.79752 97.0809 3.18992 96.604 2.44727 96.1469C1.43573 95.5243 0.954822 94.9943 0.530117 94.0338C-0.336381 92.0743 -0.219489 91.9256 1.56511 92.717C3.52446 93.5859 4.22767 93.8822 5.71465 94.4653C6.54313 94.7902 7.65234 95.2459 8.17956 95.4781C10.4306 96.4693 10.8693 96.6499 12.5616 97.2824C13.5407 97.6484 16.1905 98.6524 18.45 99.5137C26.2033 102.469 30.1463 103.783 33.6503 104.58C35.0813 104.905 36.5603 105.244 36.9368 105.332C37.3134 105.421 38.6691 105.57 39.9495 105.664C41.4584 105.775 43.0676 105.96 43.5543 105.981C46.0168 106.09 48.9516 105.285 50.0658 105.029C50.1338 105.014 53.9143 109.929 53.8259 109.929C51.3924 110.873 44.4682 115.972 44.4682 115.972L40.9078 118.646C36.8333 121.707 35.3549 122.489 30.7743 124.004C25.2912 125.819 23.4839 126.205 19.6145 126.391C17.2474 126.505 16.3312 126.446 15.6629 126.14Z" fill="#FF7518"/>
</svg>
