<svg width="29" height="28" viewBox="0 0 29 28" fill="none" xmlns="http://www.w3.org/2000/svg">
<path d="M14.0012 2.33435C10.8327 2.33435 10.4355 2.3545 9.1912 2.4057C7.94941 2.46242 7.103 2.65674 6.36097 2.94527C5.59374 3.24332 4.94046 3.64401 4.29189 4.29262C3.6433 4.94123 3.24634 5.59094 2.94823 6.35812C2.65975 7.10022 2.46171 7.95009 2.40506 9.19187C2.34816 10.4362 2.33353 10.8334 2.33353 14.0018C2.33353 17.1704 2.34816 17.5675 2.40506 18.8118C2.46178 20.0536 2.65975 20.9 2.94823 21.6421C3.24634 22.4093 3.6433 23.059 4.29189 23.7076C4.94046 24.3562 5.59374 24.7565 6.36097 25.0547C7.103 25.3431 7.94941 25.5413 9.1912 25.598C10.4355 25.6547 10.8327 25.6657 14.0012 25.6657C17.1696 25.6657 17.5668 25.6474 18.8112 25.598C20.0529 25.5413 20.9029 25.3431 21.645 25.0547C22.4122 24.7565 23.0619 24.3562 23.7105 23.7076C24.3591 23.059 24.756 22.4093 25.0541 21.6421C25.3426 20.9 25.5406 20.0536 25.5973 18.8118C25.6542 17.5675 25.6688 17.1704 25.6688 14.0018C25.6688 10.8334 25.6542 10.4362 25.5973 9.19187C25.5406 7.95009 25.3426 7.10022 25.0541 6.35812C24.756 5.59094 24.3591 4.94123 23.7105 4.29262C23.0619 3.64401 22.4122 3.24332 21.645 2.94527C20.9029 2.65674 20.0529 2.46242 18.8112 2.4057C17.5668 2.34898 17.1696 2.33435 14.0012 2.33435ZM14.0012 4.43552C17.1163 4.43552 17.4844 4.45379 18.7147 4.50321C19.8521 4.55445 20.4727 4.74729 20.8838 4.90702C21.4284 5.11871 21.8157 5.37083 22.2239 5.77903C22.6322 6.18723 22.8843 6.57456 23.0958 7.11906C23.2555 7.53019 23.4477 8.1508 23.4996 9.28811C23.5556 10.5184 23.5675 10.8867 23.5675 14.0017C23.5675 17.1168 23.5547 17.4851 23.4996 18.7152C23.4477 19.8527 23.2555 20.4696 23.0958 20.8808C22.8843 21.4253 22.6322 21.8159 22.2239 22.2243C21.8157 22.6325 21.4284 22.8846 20.8838 23.0963C20.4727 23.2555 19.8521 23.4448 18.7147 23.4966C17.4846 23.5533 17.1165 23.5643 14.0012 23.5643C10.8858 23.5643 10.5177 23.546 9.28769 23.4966C8.15025 23.4454 7.53322 23.256 7.12212 23.0963C6.57754 22.8846 6.18669 22.6325 5.77848 22.2243C5.37029 21.8159 5.1182 21.4253 4.90654 20.8808C4.74681 20.4696 4.55823 19.8527 4.50631 18.7152C4.45032 17.4851 4.43842 17.1168 4.43842 14.0017C4.43842 10.8867 4.45123 10.5184 4.50631 9.28811C4.55827 8.1508 4.74681 7.53019 4.90654 7.11906C5.1182 6.57456 5.37029 6.18723 5.77848 5.77903C6.18669 5.37083 6.57754 5.11871 7.12212 4.90702C7.53322 4.74784 8.15025 4.55518 9.28769 4.50321C10.5179 4.4465 10.8861 4.43552 14.0012 4.43552ZM20.2299 6.37239C19.4567 6.37239 18.829 6.99995 18.829 7.77316C18.829 8.54637 19.4567 9.17394 20.2299 9.17394C21.0031 9.17394 21.6307 8.54637 21.6307 7.77316C21.6307 6.99995 21.0031 6.37239 20.2299 6.37239ZM14.0012 8.00901C10.6925 8.00901 8.01193 10.6933 8.01193 14.0018C8.01193 17.3106 10.6925 19.991 14.0012 19.991C17.3098 19.991 19.994 17.3106 19.994 14.0018C19.994 10.6933 17.3098 8.00901 14.0012 8.00901ZM14.0012 10.1138C16.1489 10.1138 17.8892 11.8542 17.8892 14.0018C17.8892 16.1497 16.1489 17.8898 14.0012 17.8898C11.8534 17.8898 10.1132 16.1497 10.1132 14.0018C10.1132 11.8542 11.8534 10.1138 14.0012 10.1138Z" fill="#18FF75"/>
</svg>
