<svg width="163" height="163" viewBox="0 0 163 163" fill="none" xmlns="http://www.w3.org/2000/svg">
<g clip-path="url(#clip0_103_282)">
<path d="M72.7617 34.4492L81.4024 20.6719L90.0391 34.4492H72.7617Z" stroke="#FEE715" stroke-width="1.75158"/>
<path d="M72.7617 25.5195L81.4024 39.2969L90.0391 25.5195H72.7617Z" stroke="#FEE715" stroke-width="1.75158"/>
<path d="M77.8711 131.93C77.8711 131.93 76.0547 142.695 61.668 146.113C47.2773 149.531 39.7852 162.742 39.7852 162.742H123.016C123.016 162.742 115.523 149.531 101.137 146.113C86.7461 142.695 84.9297 131.93 84.9297 131.93H77.8711Z" fill="#FEE715"/>
<path d="M84.9297 38.6523H77.8711V151.453H84.9297V38.6523Z" fill="#FEE715"/>
<path d="M138.223 25.5273C138.223 59.1015 140.527 87.8242 81.4023 87.8242C22.2734 87.8242 24.5781 59.1015 24.5781 25.5273" stroke="#FEE715" stroke-width="7.17548"/>
<path d="M118.203 25.5273C118.203 59.1015 117.863 72.8047 81.4024 72.8047C44.9375 72.8047 44.5977 59.1015 44.5977 25.5273" stroke="#FEE715" stroke-width="7.17548"/>
<path d="M98.1875 25.5273C98.1875 59.1015 87.8399 57.789 81.4024 57.789C74.9609 57.789 64.6172 59.1015 64.6172 25.5273" stroke="#FEE715" stroke-width="7.17548"/>
<path d="M158.235 25.5273C158.235 59.1015 163.899 102.84 81.4024 102.84C-1.09761 102.84 4.56645 59.1015 4.56645 25.5273" stroke="#FEE715" stroke-width="7.17548"/>
<path d="M8.40625 22.7305H0.726562C0.324219 22.7305 0 23.0352 0 23.4102C0 23.7852 0.324219 24.0898 0.726562 24.0898H8.40625C8.80469 24.0898 9.12891 23.7852 9.12891 23.4102C9.12891 23.0352 8.80469 22.7305 8.40625 22.7305Z" fill="#FEE715"/>
<path d="M8.61713 15.9102C8.61713 19.4609 9.30463 23.8438 4.56635 23.8438C-0.175836 23.8438 0.511664 19.4609 0.511664 15.9102H8.61713Z" fill="#FEE715"/>
<path d="M6.56641 9.52734H2.5625V15.1602H6.56641V9.52734Z" fill="#CCCCCC"/>
<path d="M6.44922 7.19922C6.44922 7.92969 5.60547 8.96484 4.56641 8.96484C3.52344 8.96484 2.68359 7.92969 2.68359 7.19922C2.68359 6.46875 3.73438 5.75 4.07422 4.96094C4.41797 4.17578 4.46484 4.00391 4.56641 3.56641C4.88281 4.01172 5.33203 4.64062 5.80859 5.36328C6.29297 6.09375 6.44922 6.46875 6.44922 7.19922Z" fill="#FF0000"/>
<path d="M28.4102 22.7305H20.7305C20.332 22.7305 20.0078 23.0352 20.0078 23.4102C20.0078 23.7852 20.332 24.0898 20.7305 24.0898H28.4102C28.8125 24.0898 29.1367 23.7852 29.1367 23.4102C29.1367 23.0352 28.8125 22.7305 28.4102 22.7305Z" fill="#FEE715"/>
<path d="M28.6249 15.9102C28.6249 19.4609 29.3124 23.8438 24.5703 23.8438C19.8281 23.8438 20.5156 19.4609 20.5156 15.9102H28.6249Z" fill="#FEE715"/>
<path d="M26.5742 9.52734H22.5703V15.1602H26.5742V9.52734Z" fill="#CCCCCC"/>
<path d="M26.4531 7.19922C26.4531 7.92969 25.6094 8.96484 24.5703 8.96484C23.5313 8.96484 22.6875 7.92969 22.6875 7.19922C22.6875 6.46875 23.7422 5.75 24.082 4.96094C24.4219 4.17578 24.4688 4.00391 24.5703 3.56641C24.8867 4.01172 25.3359 4.64062 25.8164 5.36328C26.2969 6.09375 26.4531 6.46875 26.4531 7.19922Z" fill="#FF0000"/>
<path d="M48.418 22.7305H40.7383C40.3359 22.7305 40.0117 23.0352 40.0117 23.4102C40.0117 23.7852 40.3359 24.0898 40.7383 24.0898H48.418C48.8164 24.0898 49.1406 23.7852 49.1406 23.4102C49.1406 23.0352 48.8164 22.7305 48.418 22.7305Z" fill="#FEE715"/>
<path d="M48.6289 15.9102C48.6289 19.4609 49.3164 23.8438 44.5781 23.8438C39.8359 23.8438 40.5234 19.4609 40.5234 15.9102H48.6289Z" fill="#FEE715"/>
<path d="M46.5781 9.52734H42.5742V15.1602H46.5781V9.52734Z" fill="#CCCCCC"/>
<path d="M46.4609 7.19922C46.4609 7.92969 45.6172 8.96484 44.5781 8.96484C43.5352 8.96484 42.6953 7.92969 42.6953 7.19922C42.6953 6.46875 43.7461 5.75 44.0859 4.96094C44.4297 4.17578 44.4766 4.00391 44.5781 3.56641C44.8945 4.01172 45.3438 4.64062 45.8203 5.36328C46.3047 6.09375 46.4609 6.46875 46.4609 7.19922Z" fill="#FF0000"/>
<path d="M68.0938 22.7305H60.4141C60.0156 22.7305 59.6914 23.0352 59.6914 23.4102C59.6914 23.7852 60.0156 24.0898 60.4141 24.0898H68.0938C68.4961 24.0898 68.8203 23.7852 68.8203 23.4102C68.8203 23.0352 68.4961 22.7305 68.0938 22.7305Z" fill="#FEE715"/>
<path d="M68.3086 15.9102C68.3086 19.4609 68.9961 23.8438 64.2539 23.8438C59.5156 23.8438 60.2031 19.4609 60.2031 15.9102H68.3086Z" fill="#FEE715"/>
<path d="M66.2578 9.52734H62.2539V15.1602H66.2578V9.52734Z" fill="#CCCCCC"/>
<path d="M66.1367 7.19922C66.1367 7.92969 65.2969 8.96484 64.2539 8.96484C63.2148 8.96484 62.3711 7.92969 62.3711 7.19922C62.3711 6.46875 63.4258 5.75 63.7656 4.96094C64.1055 4.17578 64.1563 4.00391 64.2539 3.56641C64.5703 4.01172 65.0195 4.64062 65.5 5.36328C65.9844 6.09375 66.1367 6.46875 66.1367 7.19922Z" fill="#FF0000"/>
<path d="M101.875 22.7305H94.1953C93.7969 22.7305 93.4727 23.0352 93.4727 23.4102C93.4727 23.7852 93.7969 24.0898 94.1953 24.0898H101.875C102.277 24.0898 102.602 23.7852 102.602 23.4102C102.602 23.0352 102.277 22.7305 101.875 22.7305Z" fill="#FEE715"/>
<path d="M102.09 15.9102C102.09 19.4609 102.777 23.8438 98.0351 23.8438C93.2929 23.8438 93.9804 19.4609 93.9804 15.9102H102.09Z" fill="#FEE715"/>
<path d="M100.039 9.52734H96.0352V15.1602H100.039V9.52734Z" fill="#CCCCCC"/>
<path d="M99.918 7.19922C99.918 7.92969 99.0742 8.96484 98.0352 8.96484C96.9961 8.96484 96.1523 7.92969 96.1523 7.19922C96.1523 6.46875 97.207 5.75 97.5469 4.96094C97.8867 4.17578 97.9336 4.00391 98.0352 3.56641C98.3516 4.01172 98.8008 4.64062 99.2812 5.36328C99.7617 6.09375 99.918 6.46875 99.918 7.19922Z" fill="#FF0000"/>
<path d="M121.883 22.7305H114.203C113.801 22.7305 113.477 23.0352 113.477 23.4102C113.477 23.7852 113.801 24.0898 114.203 24.0898H121.883C122.281 24.0898 122.605 23.7852 122.605 23.4102C122.605 23.0352 122.281 22.7305 121.883 22.7305Z" fill="#FEE715"/>
<path d="M122.094 15.9102C122.094 19.4609 122.781 23.8438 118.043 23.8438C113.301 23.8438 113.988 19.4609 113.988 15.9102H122.094Z" fill="#FEE715"/>
<path d="M120.043 9.52734H116.039V15.1602H120.043V9.52734Z" fill="#CCCCCC"/>
<path d="M119.926 7.19922C119.926 7.92969 119.082 8.96484 118.043 8.96484C117 8.96484 116.16 7.92969 116.16 7.19922C116.16 6.46875 117.211 5.75 117.551 4.96094C117.895 4.17578 117.941 4.00391 118.043 3.56641C118.359 4.01172 118.809 4.64062 119.285 5.36328C119.77 6.09375 119.926 6.46875 119.926 7.19922Z" fill="#FF0000"/>
<path d="M141.887 22.7305H134.207C133.809 22.7305 133.484 23.0352 133.484 23.4102C133.484 23.7852 133.809 24.0898 134.207 24.0898H141.887C142.289 24.0898 142.613 23.7852 142.613 23.4102C142.613 23.0352 142.289 22.7305 141.887 22.7305Z" fill="#FEE715"/>
<path d="M142.102 15.9102C142.102 19.4609 142.789 23.8438 138.047 23.8438C133.309 23.8438 133.996 19.4609 133.996 15.9102H142.102Z" fill="#FEE715"/>
<path d="M140.051 9.52734H136.047V15.1602H140.051V9.52734Z" fill="#CCCCCC"/>
<path d="M139.93 7.19922C139.93 7.92969 139.086 8.96484 138.047 8.96484C137.008 8.96484 136.164 7.92969 136.164 7.19922C136.164 6.46875 137.219 5.75 137.559 4.96094C137.898 4.17578 137.945 4.00391 138.047 3.56641C138.363 4.01172 138.812 4.64062 139.293 5.36328C139.773 6.09375 139.93 6.46875 139.93 7.19922Z" fill="#FF0000"/>
<path d="M161.895 22.7305H154.215C153.812 22.7305 153.488 23.0352 153.488 23.4102C153.488 23.7852 153.812 24.0898 154.215 24.0898H161.895C162.293 24.0898 162.617 23.7852 162.617 23.4102C162.617 23.0352 162.293 22.7305 161.895 22.7305Z" fill="#FEE715"/>
<path d="M162.109 15.9102C162.109 19.4609 162.797 23.8438 158.055 23.8438C153.313 23.8438 154 19.4609 154 15.9102H162.109Z" fill="#FEE715"/>
<path d="M160.055 9.52734H156.051V15.1602H160.055V9.52734Z" fill="#CCCCCC"/>
<path d="M159.938 7.19922C159.938 7.92969 159.094 8.96484 158.055 8.96484C157.016 8.96484 156.172 7.92969 156.172 7.19922C156.172 6.46875 157.223 5.75 157.566 4.96094C157.906 4.17578 157.953 4.00391 158.055 3.56641C158.371 4.01172 158.82 4.64062 159.297 5.36328C159.781 6.09375 159.938 6.46875 159.938 7.19922Z" fill="#FF0000"/>
<path d="M85.1484 18.1172H77.4688C77.0703 18.1172 76.7461 18.4219 76.7461 18.7969C76.7461 19.1719 77.0703 19.4766 77.4688 19.4766H85.1484C85.5508 19.4766 85.875 19.1719 85.875 18.7969C85.875 18.4219 85.5508 18.1172 85.1484 18.1172Z" fill="#FEE715"/>
<path d="M85.3632 11.2969C85.3632 14.8477 86.0507 19.2305 81.3085 19.2305C76.5664 19.2305 77.2539 14.8477 77.2539 11.2969H85.3632Z" fill="#FEE715"/>
<path d="M83.3125 4.91406H79.3086V10.5469H83.3125V4.91406Z" fill="#CCCCCC"/>
<path d="M83.1914 2.58594C83.1914 3.31641 82.3477 4.35156 81.3086 4.35156C80.2695 4.35156 79.4258 3.31641 79.4258 2.58594C79.4258 1.85547 80.4805 1.13672 80.8203 0.347656C81.1602 -0.4375 81.207 -0.609375 81.3086 -1.04688C81.625 -0.601562 82.0742 0.0273438 82.5547 0.75C83.0352 1.48047 83.1914 1.85547 83.1914 2.58594Z" fill="#FF0000"/>
</g>
<defs>
<clipPath id="clip0_103_282">
<rect width="163" height="163" fill="white"/>
</clipPath>
</defs>
</svg>
