<svg width="139" height="131" viewBox="0 0 139 131" fill="none" xmlns="http://www.w3.org/2000/svg">
<path d="M43.583 20.27C43.584 20.5601 39.5766 20.0301 35.1092 19.8486C30.6695 18.4851 27.1706 20.9608 23.2392 21.6785C21.235 21.6785 13.1062 30.0475 10.6122 34.6785C7.79117 38.8073 6.31598 43.4698 4.72098 48.1785C1.86628 56.7604 1.72717 57.9683 1.72717 74.1785C1.72717 83.5285 2.22506 93.2035 2.83357 95.6785C4.88737 104.032 9.40047 111.995 15.6546 118.302C25.4277 128.156 29.9136 129.768 49.2266 130.361C58.5444 131.472 66.9286 129.154 76.2266 129.129C86.5326 129.084 88.2976 128.805 93.2266 126.445C111.459 120.211 126.895 108.452 134.925 90.6787C136.605 86.0532 136.528 67.7407 134.798 60.5037C129.698 44.8427 120.832 28.0267 106.675 18.6597C95.2253 12.1931 80.9833 7.28275 67.9463 11.1512C63.2166 10.5641 55.7043 20.3582 52.6953 17.5637" fill="#D45500"/>
<path fill-rule="evenodd" clip-rule="evenodd" d="M43.173 20.7C40.7858 20.5159 37.6543 16.4572 37.6043 12.091C37.529 5.5112 25.2983 3.0463 25.3363 0.343002C28.1708 1.9525 30.7243 3.1085 34.7391 3.0374C38.5696 2.9696 40.8718 -0.180196 46.7051 3.131C42.8778 12.9108 52.9211 18.413 52.9211 18.413L44.2838 20.4225L43.1727 20.7002L43.173 20.7Z" fill="url(#paint0_linear_16:18)"/>
<path d="M39.503 18.8C13.359 8.476 -1.97997 49.777 0.57203 79.078C6.22423 131.088 31.142 130.746 60.411 130.467C86.069 122.966 41.468 100.878 37.484 81.578C33.361 61.607 70.433 28.419 39.5029 18.8H39.503Z" fill="url(#paint1_radial_16:18)"/>
<path d="M41.723 20.75C21.18 17.8038 14.776 50.944 15.848 79.083C14.6485 114.724 43.1561 132.056 56.2421 130.194C69.3281 128.332 56.7449 100.884 52.7594 81.583C48.6359 61.613 51.0979 22.688 41.7224 20.75H41.723Z" fill="url(#paint2_radial_16:18)"/>
<path d="M50.283 18.18C73.323 -9.485 130.314 22.1717 137.754 61.777C146.119 106.303 96.819 130.008 85.113 128.168C73.407 126.328 98.055 94.283 96.401 74.645C94.6894 54.325 41.843 22.698 50.283 18.18V18.18Z" fill="url(#paint3_radial_16:18)"/>
<path d="M59.383 15.36C78.139 6.4767 106.269 40.414 113.557 67.613C125.231 101.308 96.017 128.507 84.698 128.457C73.379 128.407 80.9254 100.521 79.0308 80.905C77.0704 60.608 50.9978 19.981 59.3828 15.36H59.383Z" fill="url(#paint4_radial_16:18)"/>
<path d="M49.503 19.51C36.701 20.9067 39.9913 41.888 41.4058 69.914C43.1963 105.389 56.6718 132.206 71.7998 128.247C86.9278 124.288 84.5238 99.769 80.5394 80.469C76.4164 60.498 64.3314 16.322 49.5024 19.51H49.503Z" fill="url(#paint5_radial_16:18)"/>
<path d="M56.723 50.75L74.501 64.361C68.1624 72.4915 55.575 72.2651 52.001 68.2499L56.7232 50.7499L56.723 50.75Z" fill="url(#paint6_linear_16:18)"/>
<path d="M83.113 34.36C102.578 28.6905 99.807 62.688 76.1686 54.36C85.3552 47.6933 91.5536 41.027 83.113 34.36Z" fill="url(#paint7_linear_16:18)"/>
<path d="M29.343 44.64C12.782 45.8553 19.4676 75.748 42.676 61.862C25.325 61.3188 20.819 51.369 29.343 44.64Z" fill="url(#paint8_linear_16:18)"/>
<path d="M32.833 77.97C22.821 80.7157 31.6152 106.717 45.055 115.748C63.37 128.055 111.174 116.021 96.722 64.915C93.1332 52.225 77.867 106.175 32.833 77.971V77.97Z" fill="url(#paint9_linear_16:18)"/>
<path d="M56.723 51.58L52.0008 67.969C57.9613 70.7983 65.0198 70.2222 69.5008 64.9134L56.7228 51.5804L56.723 51.58ZM39.922 79.181C64.534 85.8615 76.127 76.7269 89.064 67.561C94.9136 63.4075 99.616 51.515 93.0722 95.4C90.6965 111.333 58.4742 124.396 41.8582 106.051C33.2359 96.5314 19.5012 71.184 39.9216 79.18L39.922 79.181ZM43.6979 61.486C36.7835 60.2566 23.1519 53.991 29.4229 43.766C12.8709 49.1049 26.4758 67.01 43.6979 61.486V61.486V61.486ZM76.1679 54.0798C80.4107 50.9969 89.5529 41.4668 82.0012 34.3578C100.691 31.1548 93.9842 53.5498 76.1679 54.0798Z" fill="url(#paint10_radial_16:18)"/>
<defs>
<linearGradient id="paint0_linear_16:18" x1="35.0578" y1="10.5214" x2="46.8078" y2="4.96144" gradientUnits="userSpaceOnUse">
<stop stop-color="#808000"/>
<stop offset="0.46836" stop-color="#9B9B00"/>
<stop offset="1" stop-color="#C2C200"/>
</linearGradient>
<radialGradient id="paint1_radial_16:18" cx="0" cy="0" r="1" gradientUnits="userSpaceOnUse" gradientTransform="translate(21.9881 72.0617) rotate(0.286852) scale(22.3121 55.484)">
<stop stop-color="#D98402"/>
<stop offset="1" stop-color="#D45500"/>
</radialGradient>
<radialGradient id="paint2_radial_16:18" cx="0" cy="0" r="1" gradientUnits="userSpaceOnUse" gradientTransform="translate(45.5636 75.4529) rotate(-0.510093) scale(31.2023 69.0941)">
<stop stop-color="#D98402"/>
<stop offset="1" stop-color="#D45500"/>
</radialGradient>
<radialGradient id="paint3_radial_16:18" cx="0" cy="0" r="1" gradientUnits="userSpaceOnUse" gradientTransform="translate(97.133 67.596) rotate(162.932) scale(37.0661 79.9904)">
<stop stop-color="#D98402"/>
<stop offset="1" stop-color="#D45500"/>
</radialGradient>
<radialGradient id="paint4_radial_16:18" cx="0" cy="0" r="1" gradientUnits="userSpaceOnUse" gradientTransform="translate(86.9838 71.1863) rotate(160.758) scale(32.3123 70.0246)">
<stop stop-color="#D98402"/>
<stop offset="1" stop-color="#D45500"/>
</radialGradient>
<radialGradient id="paint5_radial_16:18" cx="0" cy="0" r="1" gradientUnits="userSpaceOnUse" gradientTransform="translate(59.6903 74.1546) rotate(-15.6664) scale(23.3096 85.3894)">
<stop stop-color="#D98402"/>
<stop offset="1" stop-color="#D45500"/>
</radialGradient>
<linearGradient id="paint6_linear_16:18" x1="55.336" y1="60.86" x2="74.503" y2="60.86" gradientUnits="userSpaceOnUse">
<stop stop-color="#FFF35C"/>
<stop offset="1" stop-color="#FB9902"/>
</linearGradient>
<linearGradient id="paint7_linear_16:18" x1="82.558" y1="38.314" x2="96.011" y2="41.37" gradientUnits="userSpaceOnUse">
<stop stop-color="#FFF35C"/>
<stop offset="1" stop-color="#FB9902"/>
</linearGradient>
<linearGradient id="paint8_linear_16:18" x1="31.421" y1="48.306" x2="16.447" y2="51.64" gradientUnits="userSpaceOnUse">
<stop stop-color="#FFF35C"/>
<stop offset="1" stop-color="#FB9902"/>
</linearGradient>
<linearGradient id="paint9_linear_16:18" x1="63.964" y1="72.31" x2="67.275" y2="120.2" gradientUnits="userSpaceOnUse">
<stop stop-color="#FFF35C"/>
<stop offset="1" stop-color="#FB9902"/>
</linearGradient>
<radialGradient id="paint10_radial_16:18" cx="0" cy="0" r="1" gradientUnits="userSpaceOnUse" gradientTransform="translate(58.9839 63.8819) rotate(71.5397) scale(39.5752 37.1274)">
<stop stop-color="#FFFF98"/>
<stop offset="0.86598" stop-color="#FFFF7A"/>
<stop offset="1" stop-color="#FFF35C"/>
</radialGradient>
</defs>
</svg>
