<svg width="200" height="200" viewBox="0 0 200 200" fill="none" xmlns="http://www.w3.org/2000/svg">
<ellipse cx="101.266" cy="99.3671" rx="91.1392" ry="61.3924" fill="white"/>
<path d="M99.3546 37.2258C48.7298 37.7463 7.97932 66.2733 8.33582 100.943C8.69232 135.612 50.0208 163.295 100.646 162.774C151.27 162.254 192.021 133.727 191.664 99.0575C191.308 64.3881 149.979 36.7052 99.3546 37.2258ZM163.476 59.1542C167.036 59.3438 166.692 64.7465 163.206 64.7655C159.395 64.7863 159.891 58.9632 163.476 59.1542ZM151.78 55.423C156.171 55.5603 155.969 61.7765 151.568 61.576C147.06 61.3705 147.246 55.2813 151.78 55.423ZM154.374 70.5223C156.906 74.7418 149.991 78.4378 148.186 74.0117C144.002 71.317 151.54 65.8013 154.374 70.5223ZM141.972 47.9032C145.599 49.5773 143.885 54.2548 140.141 54.0287C134.772 53.7042 136.92 45.5708 141.972 47.9032ZM105.444 38.8007C109.027 38.9893 108.786 44.287 105.168 44.1583C101.571 44.1583 101.875 38.6127 105.444 38.8007ZM100.726 66.2377C100.805 66.8555 100.77 67.4865 100.63 68.0933C100.483 68.7328 100.219 69.3453 99.8493 69.8877C98.9658 71.1838 96.0525 67.1812 95.5943 66.5083C94.9243 65.5247 94.4543 64.154 95.5352 63.2995C96.3537 62.6525 97.5773 62.5465 98.5173 62.9732C99.7673 63.5403 100.553 64.8758 100.726 66.2377ZM92.198 45.264C92.7143 41.1652 98.4961 42.2607 98.6528 45.7028C99.2341 50.0327 91.6421 49.6758 92.198 45.264ZM83.447 47.4988C86.3218 43.6407 93.553 48.0825 89.7411 51.7185C86.9861 54.3462 80.6101 51.306 83.447 47.4988ZM76.5613 44.0007C80.5921 46.3847 75.4617 51.4465 72.9717 48.1172C70.4098 45.8238 73.9375 42.4488 76.5613 44.0007ZM76.0441 51.8477C80.6525 53.91 76.5166 58.4727 72.7853 57.6227C68.5613 56.6605 72.0623 50.0657 76.0441 51.8477ZM26.506 82.3007C22.4587 82.397 22.157 77.2805 25.5528 75.8478C30.161 73.9032 31.681 82.1777 26.506 82.3007ZM29.941 69.8492C26.3191 67.5098 30.7096 62.0595 33.9238 65.1542C36.7286 67.8547 32.6925 71.6263 29.941 69.8492ZM35.8003 89.0558C32.7368 86.2912 36.7753 82.1923 39.8923 82.6258C44.1958 83.2243 39.8161 92.6798 35.8003 89.0558ZM37.7673 78.5568C33.6921 77.7588 34.3533 71.5078 38.68 72.0892C43.2755 72.7068 42.3725 79.4587 37.7673 78.5568ZM40.4728 66.5083C35.4913 63.9025 40.5096 58.5238 44.8933 61.089C49.217 63.6192 43.7913 68.2443 40.4728 66.5083ZM48.255 52.2622C52.1536 51.035 53.371 57.2062 49.5876 58.4305C45.8831 59.6295 44.9421 53.305 48.255 52.2622ZM52.9287 68.2443C57.7352 70.6545 53.8328 78.4098 49.2735 74.887C45.44 71.9435 48.2687 65.9075 52.9287 68.2443ZM49.9398 91.9468C46.3886 89.2488 50.5737 82.1813 54.7942 84.9042C59.5342 87.963 54.1703 95.161 49.9398 91.9468ZM58.9193 49.4992C63.2577 48.0573 65.1901 53.6978 60.8105 54.8788C56.3381 56.4143 54.3815 51.0073 58.9193 49.4992ZM58.7992 64.641C57.8305 63.2355 58.942 61.2863 60.546 61.1377C61.1571 61.081 61.778 61.1662 62.3845 61.0713C63.7596 60.8563 64.8501 59.7603 66.2013 59.4258C67.3576 59.1395 68.6285 59.463 69.5661 60.1977C70.5036 60.9323 71.1115 62.0487 71.3135 63.2227C71.5305 64.4842 71.2152 65.6152 70.5572 66.4358C69.6593 67.5557 68.1235 68.0978 66.431 67.6055C65.5736 67.356 64.7968 66.8968 63.9478 66.6252C63.0497 66.3377 62.097 66.2683 61.18 66.048C60.2628 65.8277 59.3343 65.4175 58.7992 64.641ZM59.1708 77.4782C60.6146 71.2968 70.4762 76.9898 66.2023 81.3952C63.2147 84.4747 58.2275 81.5165 59.1708 77.4782ZM62.9411 99.9122C59.613 97.7515 63.609 92.3325 66.6666 94.695C69.501 96.8842 66.251 102.061 62.9411 99.9122ZM69.807 84.3162C70.571 78.5238 79.1088 80.7248 78.9205 85.8762C78.6801 92.4438 69.064 89.9502 69.807 84.3162ZM79.9876 102.731C75.7403 102.443 76.7655 95.944 80.732 97.1218C84.048 98.1065 83.5508 102.972 79.9876 102.731ZM91.5456 94.2018C88.3145 95.7657 84.4295 90.8392 87.3763 88.1758C91.7983 84.1797 95.8766 92.1057 91.5456 94.2018ZM96.0951 72.6003C95.798 72.9787 95.2183 72.9193 94.7468 72.8233C92.0278 72.2702 89.314 71.6927 86.5921 71.154C84.5641 70.7527 82.7786 69.8077 83.2063 67.3722C83.4633 65.9082 84.5786 64.628 85.9936 64.173C87.368 63.731 88.9038 64.1018 90.1518 64.7467C92.42 65.9187 94.2771 67.9568 95.4871 70.1793C95.7893 70.7347 96.5948 71.9638 96.0951 72.6003ZM98.6846 103.753C95.0948 101.535 98.3476 95.8638 102.073 97.4357C105.959 99.0757 102.492 106.106 98.6846 103.753ZM105.142 93.391C100.091 93.5732 99.8796 87.6708 104.358 86.4078C109.623 84.9233 111.032 93.1787 105.142 93.391ZM106.99 48.998C106.528 44.4263 113.852 42.9167 115.073 47.5167C116.575 53.1737 107.561 54.6455 106.99 48.998ZM114.393 102.481C109.542 100.244 114.143 95.6063 118.157 96.8688C122.742 98.3112 118.32 104.292 114.393 102.481ZM120.762 43.9892C123.12 40.603 127.393 44.6838 125.573 47.7935C123.489 51.3548 118.603 47.0905 120.762 43.9892ZM126.035 53.1348C128.832 50.7115 132.12 54.6237 129.546 57.1997C126.957 59.789 123.278 55.5232 126.035 53.1348ZM130.55 102.3C125.123 102.967 126.182 94.3353 131.533 94.1828C136.846 94.0315 134.095 101.864 130.55 102.3ZM132.018 89.615C128.636 87.2657 132.042 81.5725 135.659 83.802C139.814 86.3633 135.841 92.2705 132.018 89.615ZM135.983 79.4155C131.235 80.7547 128.833 74.0108 133.012 71.6397C138.231 68.6792 141.796 77.7757 135.983 79.4155ZM136.111 61.9087C137.735 58.4485 144.47 60.5105 142.447 64.3388C140.948 67.1765 134.323 65.7193 136.111 61.9087ZM143.279 98.4375C138.365 96.919 141.839 88.655 145.569 91.1428C148.912 93.3725 147.983 99.8908 143.279 98.4375ZM153.923 89.5228C148.679 91.5667 144.189 83.1872 150.222 80.8762C155.844 78.7228 159.555 87.3275 153.923 89.5228ZM160.194 73.2872C161.846 69.87 166.924 72.4898 166.149 75.8828C165.204 80.0198 158.341 77.119 160.194 73.2872ZM165.634 86.8951C162.373 84.8355 164.777 79.8148 168.422 80.9262C173.286 82.4093 169.813 89.534 165.634 86.8951ZM167.834 70.1685C164.18 66.8017 168.871 63.0828 172.549 65.2453C176.753 67.7172 171.862 73.8802 167.834 70.1685Z" fill="#E09868"/>
<path d="M101.007 56.0552C85.6799 56.0552 72.6876 60.3857 74.6889 71.459C74.7111 71.582 74.7422 71.7009 74.7701 71.8214C74.7936 70.8555 74.9864 69.8955 75.3767 68.9917C77.4277 64.2428 83.9829 61.8227 89.2099 60.7562C98.3702 58.8873 108.127 59.2945 117.041 61.9175C119.607 62.6727 122.156 63.6358 124.159 65.2247C126.162 66.8135 127.559 69.1242 127.325 71.4753C127.321 71.5202 127.312 71.5642 127.306 71.6089C127.347 71.5009 127.39 71.3945 127.426 71.2847C131.029 60.3857 116.335 56.0552 101.007 56.0552Z" fill="#CE8055"/>
<path d="M127.325 71.4751C127.559 69.124 126.162 66.8133 124.159 65.2245C122.156 63.6356 119.607 62.6725 117.041 61.9173C108.127 59.2943 98.3705 58.8872 89.21 60.756C83.9828 61.8223 77.4278 64.2425 75.3768 68.9915C73.386 73.601 76.37 79.6668 82.2455 80.5465C85.2518 80.9966 88.3478 80.6465 91.3403 81.1551C93.4868 81.52 95.9345 82.7475 98.2835 82.9685C100.947 83.2191 103.537 81.9585 106.185 82.4228C110.924 83.254 112.148 88.5938 116.62 89.914C122.695 91.7073 124.803 85.6023 124.723 81.5261C124.674 79.0598 125.784 76.8371 126.581 74.5503C126.931 73.5465 127.221 72.53 127.325 71.4751ZM96.0952 72.6003C95.798 72.9786 95.2183 72.9193 94.7468 72.8233C92.0278 72.2701 89.314 71.6926 86.5922 71.154C84.5642 70.7526 82.7787 69.8076 83.2063 67.3721C83.4633 65.9081 84.5787 64.628 85.9937 64.173C87.368 63.731 88.9038 64.1018 90.1518 64.7466C92.42 65.9186 94.2772 67.9568 95.4872 70.1793C95.7893 70.7346 96.5948 71.9638 96.0952 72.6003ZM100.63 68.0931C100.483 68.7326 100.219 69.3451 99.8493 69.8875C98.9658 71.1836 96.0525 67.181 95.5943 66.5081C94.9243 65.5245 94.4543 64.1538 95.5352 63.2993C96.3537 62.6523 97.5773 62.5463 98.5173 62.973C99.7673 63.5403 100.553 64.876 100.726 66.2376C100.805 66.8555 100.77 67.4863 100.63 68.0931Z" fill="#CC3232"/>
<path d="M124.723 75.016C124.803 79.0923 122.696 85.197 116.62 83.4038C112.148 82.0837 110.924 76.7438 106.185 75.9127C103.538 75.4483 100.946 76.709 98.2837 76.4583C95.9345 76.2373 93.487 75.0098 91.3403 74.645C88.348 74.1363 85.2518 74.4863 82.2457 74.0363C78.9547 73.5437 76.573 71.4235 75.4622 68.8442C75.4385 68.8958 75.3995 68.9393 75.3768 68.9915C73.386 73.601 76.37 79.6668 82.2457 80.5465C85.2518 80.9965 88.348 80.6465 91.3403 81.1552C93.487 81.5202 95.9345 82.7475 98.2837 82.9685C100.946 83.2192 103.538 81.9585 106.185 82.4228C110.924 83.254 112.148 88.594 116.62 89.914C122.696 91.7073 124.803 85.6023 124.723 81.5262C124.675 79.0597 125.784 76.837 126.581 74.5502C126.931 73.5462 127.221 72.5298 127.325 71.475C127.442 70.2962 127.149 69.1278 126.576 68.0552C125.779 70.3368 124.675 72.5552 124.723 75.016Z" fill="#A82929"/>
<path d="M191.556 96.499C179.005 120.734 142.574 138.262 99.5855 138.262C57.471 138.262 21.6506 121.439 8.4103 97.9687C8.35347 98.9548 8.32564 99.9458 8.3358 100.942C8.3608 103.374 8.59447 105.77 9.01164 108.125C22.709 131.055 58.0908 147.387 99.5855 147.387C142.065 147.387 178.141 130.272 191.101 106.483C191.494 104.045 191.691 101.568 191.665 99.0573C191.656 98.1998 191.615 97.3477 191.556 96.499Z" fill="#F7CD79"/>
</svg>
